<svg xmlns="http://www.w3.org/2000/svg" viewBox="0 0 512 512" width="100%" height="100%">
  <defs>
    <style>
      :root {
        --canvas-top: #18283F;
        --canvas-mid: #111C2E;
        --canvas-bot: #0B131F;
        --border-out: rgba(255, 255, 255, 0.08);
        --border-in: rgba(255, 255, 255, 0.04);
        --cal-bg: rgba(17, 28, 46, 0.75);
        --cal-border: rgba(255, 255, 255, 0.12);
        --cal-div: rgba(15, 23, 42, 0.25);
        --ring-str: #0F172A;
        --grid-dot: #FFFFFF;
        --gantry-str: rgba(255, 255, 255, 0.08);
        --core-center: #FFFFFF;
        --shadow-col: rgba(0, 0, 0, 0.5);
      }
      
      @media (prefers-color-scheme: light) {
        :root {
          --canvas-top: #ECE7DC;
          --canvas-mid: #F4F1EA;
          --canvas-bot: #F8FAFC;
          --border-out: rgba(15, 23, 42, 0.12);
          --border-in: rgba(15, 23, 42, 0.06);
          --cal-bg: rgba(255, 255, 255, 0.9);
          --cal-border: rgba(15, 23, 42, 0.15);
          --cal-div: rgba(15, 23, 42, 0.15);
          --ring-str: #475569;
          --grid-dot: #0F172A;
          --gantry-str: rgba(15, 23, 42, 0.12);
          --core-center: #0F172A;
          --shadow-col: rgba(15, 23, 42, 0.15);
        }
      }

      .theme-canvas { fill: url(#bgGrad); stroke: var(--border-out); stroke-width: 3; }
      .theme-inner { fill: none; stroke: var(--border-in); stroke-width: 2; }
      .theme-cal { fill: var(--cal-bg); stroke: var(--cal-border); stroke-width: 2; filter: drop-shadow(0 12px 16px var(--shadow-col)); }
      .theme-cal-div { stroke: var(--cal-div); stroke-width: 2; }
      .theme-ring { fill: url(#metalGrad); stroke: var(--ring-str); stroke-width: 1.5; }
      .theme-dot { fill: var(--grid-dot); opacity: 0.25; }
      .theme-gantry { fill: none; stroke: var(--gantry-str); stroke-width: 12; }
      .theme-core { fill: var(--core-center); }
    </style>

    <linearGradient id="bgGrad" x1="0%" y1="0%" x2="100%" y2="100%">
      <stop offset="0%" style="stop-color: var(--canvas-top);" />
      <stop offset="40%" style="stop-color: var(--canvas-mid);" />
      <stop offset="100%" style="stop-color: var(--canvas-bot);" />
    </linearGradient>
    
    <linearGradient id="accentGrad" x1="0%" y1="0%" x2="100%" y2="100%">
      <stop offset="0%" stop-color="#0EA5E9" />
      <stop offset="100%" stop-color="#6366F1" />
    </linearGradient>
    
    <linearGradient id="metalGrad" x1="0%" y1="0%" x2="0%" y2="100%">
      <stop offset="0%" stop-color="#94A3B8" />
      <stop offset="50%" stop-color="#CBD5E1" />
      <stop offset="100%" stop-color="#475569" />
    </linearGradient>

    <filter id="coreGlow" x="-50%" y="-50%" width="200%" height="200%">
      <feGaussianBlur stdDeviation="8" result="blur" />
      <feComposite in="SourceGraphic" in2="blur" operator="over" />
    </filter>
  </defs>

  <rect class="theme-canvas" width="512" height="512" rx="112" />
  <rect class="theme-inner" x="6" y="6" width="500" height="500" rx="106" />

  <g>
    <path class="theme-cal" d="M 106,106 A 24,24 0 0 1 130,82 L 382,82 A 24,24 0 0 1 406,106 L 406,356 A 24,24 0 0 1 382,380 L 130,380 A 24,24 0 0 1 106,356 Z" />
    <path d="M 106,106 A 24,24 0 0 1 130,82 L 382,82 A 24,24 0 0 1 406,106 L 406,146 L 106,146 Z" fill="url(#accentGrad)" />
    <line class="theme-cal-div" x1="106" y1="146" x2="406" y2="146" />
  </g>

  <rect class="theme-ring" x="160" y="46" width="20" height="64" rx="10" />
  <rect class="theme-ring" x="332" y="46" width="20" height="64" rx="10" />

  <g>
    <circle class="theme-dot" cx="150" cy="185" r="5" />
    <circle class="theme-dot" cx="206" cy="185" r="5" />
    <circle class="theme-dot" cx="262" cy="185" r="5" />
    <circle class="theme-dot" cx="318" cy="185" r="5" />
    <circle class="theme-dot" cx="374" cy="185" r="5" />
    
    <circle class="theme-dot" cx="150" cy="285" r="5" />
    <circle class="theme-dot" cx="206" cy="285" r="5" />
    <circle class="theme-dot" cx="262" cy="285" r="5" />
    <circle class="theme-dot" cx="318" cy="285" r="5" />
    <circle class="theme-dot" cx="374" cy="285" r="5" />
  </g>

  <rect x="134" y="224" width="32" height="24" rx="6" fill="#0EA5E9" />
  <rect x="190" y="224" width="32" height="24" rx="6" fill="#F97316" />
  <rect x="358" y="224" width="32" height="24" rx="6" fill="#22C55E" />

  <line x1="256" y1="360" x2="150" y2="236" stroke="#0EA5E9" stroke-width="2" stroke-dasharray="4 4" opacity="0.7" />
  <line x1="256" y1="360" x2="206" y2="236" stroke="#F97316" stroke-width="2" stroke-dasharray="4 4" opacity="0.7" />
  <line x1="256" y1="360" x2="374" y2="236" stroke="#22C55E" stroke-width="2" stroke-dasharray="4 4" opacity="0.7" />

  <g transform="translate(256, 360) scale(1.4)">
    <circle class="theme-gantry" cx="0" cy="0" r="72" />
    <circle cx="0" cy="0" r="72" fill="none" stroke="url(#accentGrad)" stroke-width="6" filter="url(#coreGlow)" />
    
    <ellipse cx="0" cy="0" rx="92" ry="28" fill="none" stroke="#38BDF8" stroke-width="2.5" transform="rotate(-30)" opacity="0.8" />
    <ellipse cx="0" cy="0" rx="92" ry="28" fill="none" stroke="#6366F1" stroke-width="2.5" transform="rotate(45)" opacity="0.8" />
    
    <circle class="theme-core" cx="0" cy="0" r="14" filter="url(#coreGlow)" />
    <circle cx="0" cy="0" r="8" fill="#0EA5E9" />
    
    <circle cx="-80" cy="46" r="5" fill="#38BDF8" filter="url(#coreGlow)" />
    <circle cx="65" cy="-65" r="5" fill="#6366F1" filter="url(#coreGlow)" />
  </g>
</svg>
